# xmcd
#
# Track frame offsets: 
#        150
#        10913
#        21732
#        31277
#        40708
#        50933
#        60561
#        70742
#        80130
#        90818
#        100436
#        109838
#
# Disc length: 1602 seconds
#
# Revision: 0
# Processed by: cddbd v1.5.2PL0 Copyright (c) Steve Scherf et al.
# Submitted via: ExactAudioCopy v0.99pb4
#
DISCID=9d06400c
DTITLE=Willie Mitchell - Hold It!
DYEAR=1960
DGENRE=Soul
TTITLE0=Hold It
TTITLE1=Percolatin'
TTITLE2=Night Train
TTITLE3=You Can't Sit Down
TTITLE4=The Dog
TTITLE5=The Crawl
TTITLE6=20-75
TTITLE7=Rinky Dink
TTITLE8=Last Night
TTITLE9=Mashed Potatoes
TTITLE10=Last Date
TTITLE11=Watermelon Man
EXTD=
EXTT0=
EXTT1=
EXTT2=
EXTT3=
EXTT4=
EXTT5=
EXTT6=
EXTT7=
EXTT8=
EXTT9=
EXTT10=
EXTT11=
PLAYORDER=
